<svg id="Layer_1" data-name="Layer 1" xmlns="http://www.w3.org/2000/svg" viewBox="0 0 1370.86 342.6"><title>samvera-connect-2017</title><g id="Layer42"><g id="Layer41"><circle cx="114.88" cy="256.68" r="23.17" transform="translate(-182.83 294.91) rotate(-79.17)" style="fill:#f6b000"/><circle cx="226.68" cy="178.31" r="23.17" transform="translate(-15.07 341.07) rotate(-79.17)" style="fill:#c4021b"/><circle cx="227.23" cy="257.02" r="23.17" transform="translate(-91.92 405.54) rotate(-79.17)" style="fill:#f6b000"/><circle cx="304.87" cy="206.46" r="23.17" transform="translate(20.78 440.73) rotate(-79.17)" style="fill:#f6b000"/><circle cx="301.68" cy="89.08" r="23.17" transform="translate(133.48 342.28) rotate(-79.17)" style="fill:#f6b000"/><circle cx="188.5" cy="131.08" r="23.17" transform="translate(0.32 265.22) rotate(-79.17)" style="fill:#c4021b"/><circle cx="54.19" cy="93.16" r="23.17" transform="translate(-71.51 102.51) rotate(-79.17)" style="fill:#f6b000"/><circle cx="47.2" cy="187.3" r="23.17" transform="translate(-169.66 172.1) rotate(-79.17)" style="fill:#f6b000"/><circle cx="276.83" cy="143.63" r="23.17" transform="translate(59.72 362.17) rotate(-79.17)" style="fill:#f65c00"/><circle cx="140.44" cy="52.98" r="23.17" transform="translate(37.99 154.59) rotate(-79.17)" style="fill:#f6b000"/><circle cx="131.22" cy="115.01" r="23.17" transform="translate(-30.42 195.91) rotate(-79.17)" style="fill:#f65c00"/><circle cx="103.84" cy="168.34" r="23.17" transform="translate(-105.03 212.33) rotate(-79.17)" style="fill:#c4021b"/><circle cx="231.67" cy="49.55" r="23.17" transform="translate(115.45 241.41) rotate(-79.17)" style="fill:#f6b000"/></g><g id="Layer411"><ellipse cx="218.46" cy="94.4" rx="10.01" ry="10.12" transform="translate(60.68 264.85) rotate(-79.17)" style="fill:#f65c00"/><ellipse cx="99.75" cy="78.81" rx="10.01" ry="10.12" transform="translate(-20.43 135.6) rotate(-79.17)" style="fill:#f6b000"/><ellipse cx="263.83" cy="229.09" rx="10.01" ry="10.12" transform="translate(-34.78 418.8) rotate(-79.17)" style="fill:#f65c00"/><ellipse cx="315.94" cy="160.9" rx="9.88" ry="9.98" transform="translate(74.52 414.6) rotate(-79.17)" style="fill:#f6b000"/><ellipse cx="62.43" cy="146.43" rx="9.88" ry="9.98" transform="translate(-117.14 153.86) rotate(-79.17)" style="fill:#f65c00"/><ellipse cx="149.57" cy="160.34" rx="9.88" ry="9.98" transform="translate(-60.03 250.75) rotate(-79.17)" style="fill:#c4021b"/><ellipse cx="74.17" cy="241.05" rx="10.01" ry="10.12" transform="translate(-200.55 242.24) rotate(-79.17)" style="fill:#f65c00"/><ellipse cx="34.15" cy="129.68" rx="10.01" ry="10.12" transform="translate(-123.65 112.48) rotate(-79.17)" style="fill:#f6b000"/><ellipse cx="131.27" cy="200.03" rx="10.01" ry="10.12" transform="translate(-113.88 265) rotate(-79.17)" style="fill:#c4021b"/><ellipse cx="264.31" cy="192.14" rx="10.01" ry="10.12" transform="translate(1.91 389.27) rotate(-79.17)" style="fill:#c4021b"/><ellipse cx="87.3" cy="123.06" rx="10.01" ry="10.12" transform="translate(-74 159.31) rotate(-79.17)" style="fill:#f65c00"/><ellipse cx="51.29" cy="227.02" rx="10.01" ry="10.12" transform="translate(-205.35 208.37) rotate(-79.17)" style="fill:#f6b000"/><ellipse cx="192.33" cy="209.25" rx="10.01" ry="10.12" transform="translate(-73.35 332.46) rotate(-79.17)" style="fill:#c4021b"/><ellipse cx="233.02" cy="129.42" rx="10.01" ry="10.12" transform="translate(38.1 307.6) rotate(-79.17)" style="fill:#f65c00"/><ellipse cx="254.86" cy="92.43" rx="10.01" ry="10.12" transform="translate(92.17 299.01) rotate(-79.17)" style="fill:#f6b000"/><ellipse cx="183.87" cy="55.94" rx="10.01" ry="10.12" transform="translate(70.35 199.65) rotate(-79.17)" style="fill:#f6b000"/><ellipse cx="172.39" cy="86.87" rx="10.01" ry="10.12" transform="translate(30.65 213.49) rotate(-79.17)" style="fill:#f65c00"/></g></g><g id="Layer19"><g id="Layer27"><path d="M158.26,199.55s-41.86,27.35,7.56,75.77c11.72,11.49,28.17,36.73,26.3,45.1,4.41-5.31-5.94-35.5-23-56.82C158.85,245.49,144.59,240.81,158.26,199.55Z" transform="translate(-24.02 -26.38)" style="fill:#8f2704"/></g><g id="Layer34"><path d="M207.46,327.79s-9.64,24.92-38.4,34.69C189,365.73,212.06,349.63,207.46,327.79Z" transform="translate(-24.02 -26.38)" style="fill:#8f2704"/></g><g id="Layer28"><path d="M166.87,280.24s53.63,63.06-50.39,88.72c-1.17.29,31.26-4.22,41.77-5.37C181.17,348.47,209.24,324.1,166.87,280.24Z" transform="translate(-24.02 -26.38)" style="fill:#8f2704"/></g><g id="Layer30"><path d="M180.72,254.17s-3.37-3.17-6.19-5.95a91.85,91.85,0,0,0,36.93-34.14C208.16,229,191.7,251,180.72,254.17Z" transform="translate(-24.02 -26.38)" style="fill:#8f2704"/></g><g id="Layer31"><path d="M208.23,227.3c6.08-.16,36.17-6.26,48.09-14.5-15.07,13.39-40.54,18.26-51.82,20.64A34.59,34.59,0,0,0,208.23,227.3Z" transform="translate(-24.02 -26.38)" style="fill:#8f2704"/></g><g id="Layer32"><path d="M166.91,239.17s-32.74-56.08,28.8-49C147.15,191.71,166.91,239.17,166.91,239.17Z" transform="translate(-24.02 -26.38)" style="fill:#8f2704"/></g><g id="Layer33"><path d="M140.6,235.8S105.74,211,77.25,222.67c22.37-16.82,62.48,3.76,62.58,5.66S139.27,231.55,140.6,235.8Z" transform="translate(-24.02 -26.38)" style="fill:#8f2704"/></g><g id="Layer35"><path d="M205.28,350.14A31.21,31.21,0,0,1,187,362.53c20.47.78,41.88,2.86,53.35,5.78C228.18,363.31,216.62,365.35,205.28,350.14Z" transform="translate(-24.02 -26.38)" style="fill:#8f2704"/></g><g id="Layer36"><path d="M111.52,216.49s-5.38-1.52-9.23-1.15c.36-1.91-12.33-9-22.21-10.86C90.49,205.28,109.19,214.2,111.52,216.49Z" transform="translate(-24.02 -26.38)" style="fill:#8f2704"/></g><g id="Layer37"><path d="M156,220s-2.48,11.81,21.94,34.88c16.51,20.3,22,30.46,24.76,39.76,5.82,19.32,3.41,49.44-34.82,66.89a38.55,38.55,0,0,1-5.5,2c44.71-34.5,32.36-57.27,26-73.57C180.26,268.13,150.22,240.06,156,220Z" transform="translate(-24.02 -26.38)" style="fill:#8f2704"/></g><g id="Layer38"><path d="M157.91,348.08s32.9-12.85,15-53.19C181.63,330.05,158.24,347.85,157.91,348.08Z" transform="translate(-24.02 -26.38)" style="fill:#8f2704"/></g><g id="Layer39"><path d="M170.44,188.1l-3.77,2.68s-5.32-16.38-.8-30.67A63.8,63.8,0,0,0,170.44,188.1Z" transform="translate(-24.02 -26.38)" style="fill:#8f2704"/></g></g><path d="M391.3,129s14.45,12.48,28.36,12.48c6.42,0,13-2.85,13-8.92,0-13.91-43.33-14.27-43.33-40.48,0-21.93,17.3-28.71,35.49-28.71,15.69,0,25.5,5.88,25.5,5.88l-4.1,17.83s-8.92-8-25.15-8c-6.06,0-11.41,3.57-11.41,8.38,0,14.44,43.51,12.84,43.51,42.8,0,18.19-13.38,28-33.71,28s-30.32-10.52-30.32-10.52Z" transform="translate(-24.02 -26.38)" style="fill:#8f2704"/><path d="M469.94,76.74s13.2-13.55,37.27-13.55c14.8,0,30.5,6.06,30.5,24.61V134c0,10.7,9.1,21.4,9.1,21.4l-22.47,2.5a30.9,30.9,0,0,1-6.06-11.06,39.34,39.34,0,0,1-26.93,11.41c-15.52,0-26-11.41-26-23.36,0-18.72,18.55-33.53,50.29-34.6V96.89c0-12.48-4.64-17.83-12.13-17.83C489.38,79.06,479,92.43,479,92.43Zm45.65,57.42V116c-8.74.71-27.46,2.68-27.46,16,0,5,3.39,9.81,10.52,9.81C504.18,141.83,511.67,138.09,515.6,134.16Z" transform="translate(-24.02 -26.38)" style="fill:#8f2704"/><path d="M677.34,155.92V103.85c0-16.76-1.78-22.11-10.88-22.11-13.2,0-22.11,10.16-22.11,10.16v49l2,15H622.24V103.85c0-16.76-1.78-22.11-10.88-22.11-13.55,0-22.29,10.34-22.29,10.34v48.51l2,15.34H567V84.05l-2.5-18,24.61-2.68V74.42a43.53,43.53,0,0,1,28.36-11.24c9.81,0,19.62,4.46,24.25,12.48.36-.54,10.88-12.48,30.85-12.48,13.55,0,26.93,7.31,26.93,22.83v54.93l2,15Z" transform="translate(-24.02 -26.38)" style="fill:#8f2704"/><path d="M766,158.24l-19.26-3.39L722.1,83.16l-8.74-16.58,25-3.21,18.19,57.42,2,11.95,2.85-11.95,19.8-54,23.72-3.39Z" transform="translate(-24.02 -26.38)" style="fill:#8f2704"/><path d="M887.59,109.91l-4.28,4.28h-49.4c.89,14.44,8.2,25.86,22.29,25.86,15.52,0,30-12.66,30-12.66l3.21,18.19s-14.27,12.66-37.45,12.66c-26.57,0-40.66-22.11-40.66-45.12,0-26,12.66-49.93,42.44-49.93C884.91,63.19,887.23,96.54,887.59,109.91ZM834.8,98.5h29.78c-.54-8.56-3.57-20.15-13-20.15C841.76,78.35,836.76,87.26,834.8,98.5Z" transform="translate(-24.02 -26.38)" style="fill:#8f2704"/><path d="M962.66,89.4s-5.17-4.82-11.95-4.82c-9.27,0-20.33,11.41-20.33,25.32v30.67l2,15.34H908.27V84.23l-2.5-18,24.61-2.68V79.77s8.74-16.58,24.25-16.58a20,20,0,0,1,14.8,6.6Z" transform="translate(-24.02 -26.38)" style="fill:#8f2704"/><path d="M980.14,76.74s13.2-13.55,37.27-13.55c14.8,0,30.49,6.06,30.49,24.61V134c0,10.7,9.09,21.4,9.09,21.4l-22.47,2.5a30.91,30.91,0,0,1-6.06-11.06,39.34,39.34,0,0,1-26.93,11.41c-15.52,0-26-11.41-26-23.36,0-18.72,18.55-33.53,50.29-34.6V96.89c0-12.48-4.64-17.83-12.13-17.83-14.09,0-24.43,13.38-24.43,13.38Zm45.65,57.42V116c-8.74.71-27.46,2.68-27.46,16,0,5,3.39,9.81,10.52,9.81C1014.38,141.83,1021.87,138.09,1025.79,134.16Z" transform="translate(-24.02 -26.38)" style="fill:#8f2704"/><path d="M450.26,218.18a28.1,28.1,0,0,0-21.61-10.89c-15.11,0-21.79,14.41-21.79,30.22,0,14.76,6.68,28.82,21.09,28.82,15.29,0,28.82-14.06,28.82-14.06l3.16,18.27s-13.18,13.71-36.2,13.71c-26.18,0-39.19-22.49-39.19-45.16,0-25.66,15.29-48.5,43.58-48.5,21.61,0,32.16,11.77,32.16,11.77Z" transform="translate(-24.02 -26.38)" style="fill:#8f2704"/><path d="M510.7,284.25c-26.71,0-40.59-23.37-40.59-45.51,0-26.18,16.69-48.15,46.57-48.15,23,0,40.41,13.88,40.41,45C557.09,261.76,540,284.25,510.7,284.25Zm2.81-15.64c12.65,0,20.21-13.71,20.21-31.28s-7.56-31.1-20.21-31.1-20.21,13.53-20.21,31.1S500.86,268.61,513.51,268.61Z" transform="translate(-24.02 -26.38)" style="fill:#8f2704"/><path d="M631.77,282V230.66c0-16.52-1.76-21.79-10.72-21.79-13.35,0-22,10-22,10v48L601,282H577.3V211.15l-2.46-17.75,24.25-2.64v10.72A42.69,42.69,0,0,1,627,190.59c13.35,0,26.53,7.2,26.53,22.49v54.12L655.49,282Z" transform="translate(-24.02 -26.38)" style="fill:#8f2704"/><path d="M736,282V230.66c0-16.52-1.76-21.79-10.72-21.79-13.35,0-22,10-22,10v48L705.21,282H681.49V211.15L679,193.41l24.25-2.64v10.72a42.69,42.69,0,0,1,27.94-10.89c13.35,0,26.53,7.2,26.53,22.49v54.12L759.69,282Z" transform="translate(-24.02 -26.38)" style="fill:#8f2704"/><path d="M853,236.63l-4.22,4.22H800.1c.88,14.23,8.08,25.48,22,25.48,15.29,0,29.52-12.48,29.52-12.48l3.16,17.92s-14.06,12.48-36.9,12.48c-26.18,0-40.06-21.79-40.06-44.46,0-25.65,12.48-49.2,41.82-49.2C850.35,190.59,852.64,223.45,853,236.63Zm-52-11.25h29.35c-.53-8.43-3.51-19.86-12.83-19.86C807.83,205.53,802.91,214.32,801,225.39Z" transform="translate(-24.02 -26.38)" style="fill:#8f2704"/><path d="M931.18,218.18a28.1,28.1,0,0,0-21.61-10.89c-15.11,0-21.79,14.41-21.79,30.22,0,14.76,6.68,28.82,21.09,28.82,15.29,0,28.82-14.06,28.82-14.06l3.16,18.27s-13.18,13.71-36.2,13.71c-26.18,0-39.19-22.49-39.19-45.16,0-25.66,15.29-48.5,43.58-48.5,21.61,0,32.16,11.77,32.16,11.77Z" transform="translate(-24.02 -26.38)" style="fill:#8f2704"/><path d="M982,193.23h26.18l-5.62,16.34H981.78v46.74c0,6.33,3.16,8.08,7.38,8.08,6.5,0,16.17-4.74,20.21-8.26l2.28,19.15s-9.84,9-29,9c-14.94,0-22.49-7.91-22.49-28.47V209.57H949.45V193.23h10.72V177.59L983.72,175Z" transform="translate(-24.02 -26.38)" style="fill:#8f2704"/><path d="M1068.41,282l-2.28-9.84c15.11-16.17,43.4-45.34,43.4-63.43,0-10-7-14.76-13.35-14.76-12.3,0-21.44,10.72-21.44,10.72l-9.14-16a52.94,52.94,0,0,1,33-11.77c17,0,33.21,9.84,33.21,29.52,0,26.36-35.49,56.58-35.49,56.58h42l-2.28,19Z" transform="translate(-24.02 -26.38)" style="fill:#8f2704"/><path d="M1230.24,230c0,30-11.42,54.3-43.05,54.3-20.56,0-37.25-14.58-37.25-54.47,0-30.58,12.3-53.77,41.12-53.77C1224.09,176,1230.24,204.83,1230.24,230Zm-57.63-2.11c0,23.37,3.87,39.89,16.52,39.89,11.25,0,18.8-13.71,18.8-37.08,0-23-5.27-37.78-17.92-37.78C1178.41,192.88,1172.61,205.36,1172.61,227.85Z" transform="translate(-24.02 -26.38)" style="fill:#8f2704"/><path d="M1240.78,265.1h21.61V201l-17.22,5.27-6.33-15.64,45.34-14.94V265.1h21.61L1303.34,282h-62.56Z" transform="translate(-24.02 -26.38)" style="fill:#8f2704"/><path d="M1323.89,299.19l44.28-101h-50.26l-5.62-19h79.25l3.34,4.57L1343.57,302Z" transform="translate(-24.02 -26.38)" style="fill:#8f2704"/><path d="M417.85,339.36l-1.73,1.73H396.17c.36,5.83,3.31,10.44,9,10.44,6.26,0,12.1-5.11,12.1-5.11l1.3,7.34a24.2,24.2,0,0,1-15.12,5.11c-10.73,0-16.42-8.93-16.42-18.22,0-10.51,5.11-20.16,17.14-20.16C416.77,320.49,417.7,334,417.85,339.36Zm-21.31-4.61h12c-.22-3.46-1.44-8.14-5.26-8.14S397.33,330.22,396.53,334.75Z" transform="translate(-24.02 -26.38)" style="fill:#8f2704"/><path d="M441.61,358.87l-7.78-1.37-9.94-28.95-3.53-6.7,10.08-1.3,7.34,23.19.79,4.82,1.15-4.82,8-21.82,9.58-1.37Z" transform="translate(-24.02 -26.38)" style="fill:#8f2704"/><path d="M461.62,326s5.33-5.47,15-5.47c6,0,12.31,2.45,12.31,9.94v18.65c0,4.32,3.67,8.64,3.67,8.64l-9.07,1a12.48,12.48,0,0,1-2.45-4.46,15.89,15.89,0,0,1-10.87,4.61c-6.26,0-10.51-4.61-10.51-9.43,0-7.56,7.49-13.54,20.31-14V334.1c0-5-1.87-7.2-4.9-7.2-5.69,0-9.86,5.4-9.86,5.4Zm18.43,23.19v-7.34c-3.53.29-11.09,1.08-11.09,6.48a3.9,3.9,0,0,0,4.25,4A11.31,11.31,0,0,0,480.05,349.15Z" transform="translate(-24.02 -26.38)" style="fill:#8f2704"/><path d="M523.11,357.94v-21c0-6.77-.72-8.93-4.39-8.93a12.88,12.88,0,0,0-9,4.1v19.66l.79,6.19h-9.72v-29l-1-7.27,9.94-1.08V325a17.5,17.5,0,0,1,11.45-4.46c5.47,0,10.87,3,10.87,9.22v22.18l.79,6Z" transform="translate(-24.02 -26.38)" style="fill:#8f2704"/><path d="M541,347.06s5.83,5,11.45,5c2.59,0,5.26-1.15,5.26-3.6,0-5.62-17.5-5.76-17.5-16.35,0-8.86,7-11.59,14.33-11.59a21.5,21.5,0,0,1,10.3,2.38l-1.66,7.2s-3.6-3.24-10.15-3.24c-2.45,0-4.61,1.44-4.61,3.38,0,5.83,17.57,5.18,17.57,17.28,0,7.34-5.4,11.31-13.61,11.31s-12.24-4.25-12.24-4.25Z" transform="translate(-24.02 -26.38)" style="fill:#8f2704"/><path d="M583.51,321.57h10.73l-2.3,6.7h-8.5v19.15c0,2.59,1.3,3.31,3,3.31,2.66,0,6.62-1.94,8.28-3.38l.94,7.85s-4,3.67-11.88,3.67c-6.12,0-9.22-3.24-9.22-11.67V328.27h-4.39v-6.7h4.39v-6.41l9.65-1.08Z" transform="translate(-24.02 -26.38)" style="fill:#8f2704"/><path d="M614.76,358.87c-10.94,0-16.63-9.58-16.63-18.65,0-10.73,6.84-19.73,19.08-19.73,9.43,0,16.56,5.69,16.56,18.43C633.77,349.66,626.79,358.87,614.76,358.87Zm1.15-6.41c5.18,0,8.28-5.62,8.28-12.82s-3.1-12.75-8.28-12.75-8.28,5.54-8.28,12.75S610.73,352.46,615.92,352.46Z" transform="translate(-24.02 -26.38)" style="fill:#8f2704"/><path d="M664.37,357.94v-21c0-6.77-.72-8.93-4.39-8.93a12.88,12.88,0,0,0-9,4.1v19.66l.79,6.19H642v-29l-1-7.27,9.94-1.08V325a17.5,17.5,0,0,1,11.45-4.46c5.47,0,10.87,3,10.87,9.22v22.18l.79,6Z" transform="translate(-24.02 -26.38)" style="fill:#8f2704"/><path d="M682.58,364c2.66-2.38,4.25-4.9,4.25-7a3,3,0,0,0-2.09-3.31v-.5a5.13,5.13,0,0,1,4.82-4.9c2.66,0,5.11,1.8,5.11,5.54,0,3.46-2.59,9.07-9.22,13.68Z" transform="translate(-24.02 -26.38)" style="fill:#8f2704"/><path d="M731.69,351.75l.79,6.19h-9.72V328.85l-1-7.27,9.94-1.08Zm-4.61-45.87a5,5,0,0,1,4.82,5,4.87,4.87,0,0,1-4.82,4.82,5,5,0,0,1-5-4.82A5.06,5.06,0,0,1,727.08,305.88Z" transform="translate(-24.02 -26.38)" style="fill:#8f2704"/><path d="M752.28,351.75l.79,6.19h-9.72V311.57l-1-7.27,9.94-1.08Z" transform="translate(-24.02 -26.38)" style="fill:#8f2704"/><path d="M768.19,358.87a5.24,5.24,0,0,1-5.4-5.33,5.4,5.4,0,0,1,10.8,0A5.24,5.24,0,0,1,768.19,358.87Z" transform="translate(-24.02 -26.38)" style="fill:#8f2704"/><path d="M824.43,357.94v-21c0-6.77-.72-8.93-4.39-8.93a12.88,12.88,0,0,0-9,4.1v19.66l.79,6.19H802.1v-29l-1-7.27,9.94-1.08V325a17.5,17.5,0,0,1,11.45-4.46c5.47,0,10.87,3,10.87,9.22v22.18l.79,6Z" transform="translate(-24.02 -26.38)" style="fill:#8f2704"/><path d="M858,358.87c-10.94,0-16.63-9.58-16.63-18.65,0-10.73,6.84-19.73,19.08-19.73,9.43,0,16.56,5.69,16.56,18.43C877.06,349.66,870.07,358.87,858,358.87Zm1.15-6.41c5.18,0,8.28-5.62,8.28-12.82s-3.1-12.75-8.28-12.75-8.28,5.54-8.28,12.75S854,352.46,859.2,352.46Z" transform="translate(-24.02 -26.38)" style="fill:#8f2704"/><path d="M900.74,358.87,893,357.51,883,328.56l-3.53-6.7,10.08-1.3,7.34,23.19.79,4.82,1.15-4.82,8-21.82,9.58-1.37Z" transform="translate(-24.02 -26.38)" style="fill:#8f2704"/><path d="M949.85,339.36l-1.73,1.73H928.17c.36,5.83,3.31,10.44,9,10.44,6.26,0,12.1-5.11,12.1-5.11l1.3,7.34a24.2,24.2,0,0,1-15.12,5.11c-10.73,0-16.42-8.93-16.42-18.22,0-10.51,5.11-20.16,17.14-20.16C948.77,320.49,949.7,334,949.85,339.36Zm-21.31-4.61h12c-.22-3.46-1.44-8.14-5.26-8.14S929.33,330.22,928.53,334.75Z" transform="translate(-24.02 -26.38)" style="fill:#8f2704"/><path d="M1002.77,357.94v-21c0-6.77-.72-8.93-4.39-8.93-5.33,0-8.93,4.1-8.93,4.1v19.8l.79,6h-9.72v-21c0-6.77-.72-8.93-4.39-8.93a12.81,12.81,0,0,0-9,4.18v19.59l.79,6.19H958.2v-29l-1-7.27,9.94-1.08V325a17.57,17.57,0,0,1,11.45-4.54c4,0,7.92,1.8,9.79,5,.14-.22,4.39-5,12.46-5,5.47,0,10.87,3,10.87,9.22v22.18l.79,6Z" transform="translate(-24.02 -26.38)" style="fill:#8f2704"/><path d="M1031.92,303.21v19.95a14.35,14.35,0,0,1,7.92-2.66c7.63,0,15.27,6.12,15.27,18.43,0,10.73-7.78,19.95-19,19.95-6,0-11.52-3-13.11-6.26v-41l-1-7.27Zm0,47.16a7.85,7.85,0,0,0,5.33,2c4.54,0,8.28-5.62,8.28-12.82s-3.74-12.17-8.28-12.17a10.09,10.09,0,0,0-5.33,1.73Z" transform="translate(-24.02 -26.38)" style="fill:#8f2704"/><path d="M1091,339.36l-1.73,1.73h-19.95c.36,5.83,3.31,10.44,9,10.44,6.26,0,12.1-5.11,12.1-5.11l1.3,7.34a24.2,24.2,0,0,1-15.12,5.11c-10.73,0-16.42-8.93-16.42-18.22,0-10.51,5.11-20.16,17.14-20.16C1089.89,320.49,1090.82,334,1091,339.36Zm-21.31-4.61h12c-.22-3.46-1.44-8.14-5.26-8.14S1070.44,330.22,1069.65,334.75Z" transform="translate(-24.02 -26.38)" style="fill:#8f2704"/><path d="M1121.28,331.08a7.88,7.88,0,0,0-4.82-1.94c-3.74,0-8.21,4.61-8.21,10.23v12.39l.79,6.19h-9.72V329l-1-7.27,9.94-1.08v6.55s3.53-6.7,9.79-6.7a8.06,8.06,0,0,1,6,2.66Z" transform="translate(-24.02 -26.38)" style="fill:#8f2704"/><path d="M1173.33,320.49a13.05,13.05,0,0,0-9.14-4.25c-4.39,0-9.58,4-10.3,12.67a18.16,18.16,0,0,1,9.22-2.38c7.34,0,13.9,4.1,13.9,14.26,0,9.87-5.69,18.07-16.42,18.07-10.94,0-16.13-9.36-16.13-22.39,0-20.81,9.36-27.36,20.16-27.36a17.7,17.7,0,0,1,11.74,4.32ZM1153.6,336c.14,7.85,1.66,15.55,8.21,15.55,4,0,6.12-4.39,6.12-8.78,0-6.7-3.6-9-7.85-9A11,11,0,0,0,1153.6,336Z" transform="translate(-24.02 -26.38)" style="fill:#8f2704"/><path d="M1218.83,336.41l-2,7.49h-18.94v-7.49Z" transform="translate(-24.02 -26.38)" style="fill:#8f2704"/><path d="M1242.81,354.7a13.05,13.05,0,0,0,9.15,4.25c4.39,0,9.58-4.82,10.3-14.19a18.16,18.16,0,0,1-9.22,2.38c-7.34,0-13.9-4.1-13.9-14.26,0-9.86,5.69-18,16.42-18,10.95,0,16.13,10,16.13,23,0,20.81-9.36,28.15-20.16,28.15a17.71,17.71,0,0,1-11.74-4.32Zm19.73-17.07c-.14-7.85-1.66-15.48-8.21-15.48-4,0-6.12,4.32-6.12,8.71,0,6.7,3.6,9,7.85,9A11,11,0,0,0,1262.54,337.63Z" transform="translate(-24.02 -26.38)" style="fill:#8f2704"/></svg>