<?xml version="1.0" encoding="UTF-8" standalone="no"?>
<!DOCTYPE svg PUBLIC "-//W3C//DTD SVG 1.1//EN" "http://www.w3.org/Graphics/SVG/1.1/DTD/svg11.dtd">
<svg width="100%" height="100%" viewBox="0 0 585 330" version="1.1" xmlns="http://www.w3.org/2000/svg" xmlns:xlink="http://www.w3.org/1999/xlink" xml:space="preserve" style="fill-rule:evenodd;clip-rule:evenodd;stroke-linejoin:round;stroke-miterlimit:1.41421;">
    <g id="Layer42" transform="matrix(-0.791026,-0.151321,-0.151321,0.791026,733.456,-45.54)">
        <g id="Layer41" transform="matrix(1.60474,0,0,1.55397,-282.85,-132.238)">
            <g transform="matrix(1.00133,0,0,1.03404,-16.2338,-22.9733)">
                <circle cx="642.079" cy="400.333" r="17.117" style="fill:rgb(246,176,0);"/>
            </g>
            <g transform="matrix(1.00133,0,0,1.03404,-86.5545,-97.8082)">
                <circle cx="642.079" cy="400.333" r="17.117" style="fill:rgb(196,2,27);"/>
            </g>
            <g transform="matrix(1.00133,0,0,1.03404,-97.8963,-38.8418)">
                <circle cx="642.079" cy="400.333" r="17.117" style="fill:rgb(246,176,0);"/>
            </g>
            <g transform="matrix(1.00133,0,0,1.03404,-147.267,-87.9063)">
                <circle cx="642.079" cy="400.333" r="17.117" style="fill:rgb(246,176,0);"/>
            </g>
            <g transform="matrix(1.00133,0,0,1.03404,-128.639,-175.504)">
                <circle cx="642.079" cy="400.333" r="17.117" style="fill:rgb(246,176,0);"/>
            </g>
            <g transform="matrix(1.00133,0,0,1.03404,-52.261,-127.758)">
                <circle cx="642.079" cy="400.333" r="17.117" style="fill:rgb(196,2,27);"/>
            </g>
            <g transform="matrix(1.00133,0,0,1.03404,50.5784,-136.932)">
                <circle cx="642.079" cy="400.333" r="17.117" style="fill:rgb(246,176,0);"/>
            </g>
            <g transform="matrix(1.00133,0,0,1.03404,42.5741,-65.3023)">
                <circle cx="642.079" cy="400.333" r="17.117" style="fill:rgb(246,176,0);"/>
            </g>
            <g transform="matrix(1.00133,0,0,1.03404,-118.169,-131.016)">
                <circle cx="642.079" cy="400.333" r="17.117" style="fill:rgb(246,92,0);"/>
            </g>
            <g transform="matrix(1.00133,0,0,1.03404,-6.49085,-179.45)">
                <circle cx="642.079" cy="400.333" r="17.117" style="fill:rgb(246,176,0);"/>
            </g>
            <g transform="matrix(1.00133,0,0,1.03404,-8.41462,-131.593)">
                <circle cx="642.079" cy="400.333" r="17.117" style="fill:rgb(246,92,0);"/>
            </g>
            <g transform="matrix(1.00133,0,0,1.03404,4.06413,-87.6588)">
                <circle cx="642.079" cy="400.333" r="17.117" style="fill:rgb(196,2,27);"/>
            </g>
            <g transform="matrix(1.00133,0,0,1.03404,-72.2885,-195.112)">
                <circle cx="642.079" cy="400.333" r="17.117" style="fill:rgb(246,176,0);"/>
            </g>
        </g>
        <g id="Layer411" transform="matrix(0.701898,0,0,0.69442,518.169,112.212)">
            <g transform="matrix(1,0,0,1,-470.946,-183.095)">
                <circle cx="642.079" cy="400.333" r="17.117" style="fill:rgb(246,92,0);"/>
            </g>
            <g transform="matrix(1,0,0,1,-268.831,-171.133)">
                <circle cx="642.079" cy="400.333" r="17.117" style="fill:rgb(246,176,0);"/>
            </g>
            <g transform="matrix(1,-2.77556e-17,0,1,-589.093,28.4556)">
                <circle cx="642.079" cy="400.333" r="17.117" style="fill:rgb(246,92,0);"/>
            </g>
            <g transform="matrix(0.986314,0,0,0.986314,-645.189,-97.2815)">
                <circle cx="642.079" cy="400.333" r="17.117" style="fill:rgb(246,176,0);"/>
            </g>
            <g transform="matrix(0.986314,0,0,0.986314,-219.553,-40.1585)">
                <circle cx="642.079" cy="400.333" r="17.117" style="fill:rgb(246,92,0);"/>
            </g>
            <g transform="matrix(0.986314,0,0,0.986314,-368.704,-44.7953)">
                <circle cx="642.079" cy="400.333" r="17.117" style="fill:rgb(196,2,27);"/>
            </g>
            <g transform="matrix(1,-5.55112e-17,0,1,-277.902,109.44)">
                <circle cx="642.079" cy="400.333" r="17.117" style="fill:rgb(246,92,0);"/>
            </g>
            <g transform="matrix(1,0,0,1,-176.05,-64.6805)">
                <circle cx="642.079" cy="400.333" r="17.117" style="fill:rgb(246,176,0);"/>
            </g>
            <g transform="matrix(1,0,0,1,-359.693,22.2324)">
                <circle cx="642.079" cy="400.333" r="17.117" style="fill:rgb(196,2,27);"/>
            </g>
            <g transform="matrix(1,0,0,1,-578.161,-33.7379)">
                <circle cx="642.079" cy="400.333" r="17.117" style="fill:rgb(196,2,27);"/>
            </g>
            <g transform="matrix(1,0,0,1,-262.217,-92.8527)">
                <circle cx="642.079" cy="400.333" r="17.117" style="fill:rgb(246,92,0);"/>
            </g>
            <g transform="matrix(1,-2.77556e-17,0,1,-235.443,93.2302)">
                <circle cx="642.079" cy="400.333" r="17.117" style="fill:rgb(246,176,0);"/>
            </g>
            <g transform="matrix(1,-2.77556e-17,0,1,-464.039,18.1038)">
                <circle cx="642.079" cy="400.333" r="17.117" style="fill:rgb(196,2,27);"/>
            </g>
            <g transform="matrix(1,0,0,1,-506.262,-128.978)">
                <circle cx="642.079" cy="400.333" r="17.117" style="fill:rgb(246,92,0);"/>
            </g>
            <g transform="matrix(1,0,0,1,-530.781,-198.082)">
                <circle cx="642.079" cy="400.333" r="17.117" style="fill:rgb(246,176,0);"/>
            </g>
            <g transform="matrix(1,0,0,1,-401.277,-236.544)">
                <circle cx="642.079" cy="400.333" r="17.117" style="fill:rgb(246,176,0);"/>
            </g>
            <g transform="matrix(1,0,0,1,-392.044,-180.933)">
                <circle cx="642.079" cy="400.333" r="17.117" style="fill:rgb(246,92,0);"/>
            </g>
        </g>
    </g>
    <g transform="matrix(-2.2885,-0.252923,-0.206243,1.81962,3321.31,-1875.13)">
        <g id="Layer19">
            <g>
                <g id="Layer27">
                    <path d="M1276.86,1299.48C1276.86,1299.48 1292.85,1316.07 1270.2,1338.36C1264.83,1343.65 1256.86,1355.8 1257.24,1360.25C1255.67,1357.24 1261.35,1342.17 1269.37,1332.09C1274.47,1323.28 1280.57,1321.67 1276.86,1299.48Z" style="fill:rgb(143,39,4);"/>
                </g>
                <g id="Layer34">
                    <path d="M1250.57,1363.19C1250.57,1363.19 1253.38,1376.67 1264.79,1383.39C1256.39,1383.93 1247.65,1374.26 1250.57,1363.19Z" style="fill:rgb(143,39,4);"/>
                </g>
                <g transform="matrix(1,0,0,1,-1.88249,-0.0421075)">
                    <g id="Layer28">
                        <path d="M1271.42,1340.89C1271.42,1340.89 1246.35,1370.53 1288.06,1389.81C1288.53,1390.03 1275.36,1385.83 1271.08,1384.63C1262.33,1375.47 1251.89,1361.22 1271.42,1340.89Z" style="fill:rgb(143,39,4);"/>
                    </g>
                </g>
                <g id="Layer30" transform="matrix(1,0,0,1,1,0)">
                    <path d="M1264.04,1326.53C1264.04,1326.53 1265.58,1325.08 1266.87,1323.8C1264.79,1322.1 1257.52,1315.82 1253.23,1303.97C1253.9,1311.88 1259.66,1324.25 1264.04,1326.53Z" style="fill:rgb(143,39,4);"/>
                </g>
                <g id="Layer31" transform="matrix(1,0,0,1,1,0)">
                    <path d="M1253.95,1311.01C1251.45,1310.58 1239.32,1305.69 1234.79,1300.73C1240.38,1308.54 1250.66,1312.53 1255.2,1314.41C1255.2,1314.41 1254.18,1312.22 1253.95,1311.01Z" style="fill:rgb(143,39,4);"/>
                </g>
                <g id="Layer32" transform="matrix(1,0,0,1,1,0)">
                    <path d="M1270.44,1319.54C1270.44,1319.54 1286.57,1292.32 1260.85,1292.47C1280.81,1296.05 1270.44,1319.54 1270.44,1319.54Z" style="fill:rgb(143,39,4);"/>
                </g>
                <g id="Layer33">
                    <path d="M1282.45,1319.3C1282.45,1319.3 1297.99,1308.43 1309.2,1316.12C1300.76,1306.11 1283.25,1314.49 1283.12,1315.47C1282.98,1316.45 1283.2,1317.17 1282.45,1319.3Z" style="fill:rgb(143,39,4);"/>
                </g>
                <g id="Layer35" transform="matrix(1,0,0,1,0.192781,-0.188305)">
                    <path d="M1250.23,1375.1C1250.23,1375.1 1252.33,1380.51 1257.2,1382.58C1248.72,1381.81 1239.79,1381.66 1234.92,1382.52C1240.17,1380.62 1244.84,1382.34 1250.23,1375.1Z" style="fill:rgb(143,39,4);"/>
                </g>
                <g transform="matrix(1,0,0,1,-4.51035,-0.473289)">
                    <g id="Layer36">
                        <path d="M1299.86,1311.42C1299.86,1311.42 1302.15,1310.94 1303.72,1311.35C1303.66,1310.34 1309.23,1307.37 1313.39,1306.99C1309.06,1306.81 1300.93,1310.37 1299.86,1311.42Z" style="fill:rgb(143,39,4);"/>
                    </g>
                </g>
                <g id="Layer37" transform="matrix(0.349764,0,0,0.393399,1036.79,1145.01)">
                    <path d="M686.33,419.951C686.33,419.951 687.674,435.881 655.792,462.758C633.606,487.128 625.824,499.729 621.276,511.588C611.831,536.217 610.64,576.286 653.399,604.88C655.117,606.029 657.78,607.591 659.615,608.363C611.5,556.345 629.107,528.12 638.781,507.543C651.262,479.896 690.445,447.249 686.33,419.951Z" style="fill:rgb(143,39,4);"/>
                </g>
                <g id="Layer38" transform="matrix(0.349764,0,0,0.393399,1036.79,1145.01)">
                    <path d="M666.94,588.585C666.94,588.585 629.854,566.843 656.379,516.256C641.377,561.356 666.574,588.243 666.94,588.585Z" style="fill:rgb(143,39,4);"/>
                </g>
                <g id="Layer39" transform="matrix(0.349764,0,0,0.393399,1036.79,1145.01)">
                    <path d="M673.547,375.773L677.632,379.856C677.632,379.856 686.096,359.033 682.673,339.518C681.859,360.248 673.547,375.773 673.547,375.773Z" style="fill:rgb(143,39,4);"/>
                </g>
            </g>
        </g>
    </g>
    <g transform="matrix(1,0,0,1,-1581.74,-321.029)">
        <g id="Layer47">
            <g>
                <path d="M1829.49,592.337C1832.52,593.304 1834.04,594.587 1834.04,596.187C1834.04,597.32 1833.59,598.77 1832.69,600.537C1831.79,602.304 1830.94,603.187 1830.14,603.187C1829.94,603.187 1829.01,602.804 1827.34,602.037C1825.67,601.27 1823.67,600.887 1821.34,600.887C1819.34,600.887 1817.74,601.27 1816.54,602.037C1815.34,602.804 1814.74,603.92 1814.74,605.387C1814.74,606.787 1815.16,607.954 1815.99,608.887C1816.82,609.82 1817.81,610.554 1818.94,611.087C1820.07,611.62 1822.01,612.454 1824.74,613.587C1828.67,615.054 1831.56,616.87 1833.39,619.037C1835.22,621.204 1836.14,624.287 1836.14,628.287C1836.14,633.154 1834.42,637.12 1830.99,640.187C1827.56,643.254 1822.97,644.787 1817.24,644.787C1814.57,644.787 1811.97,644.487 1809.44,643.887C1806.91,643.287 1804.84,642.47 1803.24,641.437C1801.64,640.404 1800.84,639.32 1800.84,638.187C1800.84,637.12 1801.41,635.737 1802.54,634.037C1803.67,632.337 1804.67,631.487 1805.54,631.487C1805.81,631.487 1806.54,631.804 1807.74,632.437C1808.94,633.07 1810.22,633.604 1811.59,634.037C1812.96,634.47 1814.51,634.687 1816.24,634.687C1821.11,634.687 1823.54,632.82 1823.54,629.087C1823.54,627.287 1822.84,625.887 1821.44,624.887C1820.04,623.887 1817.71,622.787 1814.44,621.587C1810.44,620.32 1807.37,618.554 1805.24,616.287C1803.11,614.02 1802.04,610.787 1802.04,606.587C1802.04,601.787 1803.66,597.97 1806.89,595.137C1810.12,592.304 1814.41,590.887 1819.74,590.887C1823.21,590.887 1826.46,591.37 1829.49,592.337Z" style="fill:rgb(143,39,4);fill-rule:nonzero;"/>
                <path d="M1881.09,595.287C1884.52,598.154 1886.24,602.154 1886.24,607.287L1886.24,627.387C1886.24,631.987 1886.44,635.32 1886.84,637.387C1887.24,639.454 1887.44,640.72 1887.44,641.187C1887.44,642.12 1886.34,642.837 1884.14,643.337C1881.94,643.837 1880.01,644.087 1878.34,644.087C1877.27,644.087 1876.51,643.604 1876.04,642.637C1875.57,641.67 1875.22,640.62 1874.99,639.487C1874.76,638.354 1874.61,637.587 1874.54,637.187C1873.01,639.054 1870.97,640.77 1868.44,642.337C1865.91,643.904 1862.77,644.687 1859.04,644.687C1853.97,644.687 1850.11,643.37 1847.44,640.737C1844.77,638.104 1843.44,634.52 1843.44,629.987C1843.44,617.72 1853.54,611.554 1873.74,611.487L1873.74,607.687C1873.74,603.22 1870.74,600.987 1864.74,600.987C1862.27,600.987 1860.09,601.27 1858.19,601.837C1856.29,602.404 1854.66,603.004 1853.29,603.637C1851.92,604.27 1851.14,604.587 1850.94,604.587C1850.07,604.587 1849.09,603.67 1847.99,601.837C1846.89,600.004 1846.34,598.62 1846.34,597.687C1846.34,596.62 1847.19,595.57 1848.89,594.537C1850.59,593.504 1852.91,592.654 1855.84,591.987C1858.77,591.32 1861.94,590.987 1865.34,590.987C1872.41,590.987 1877.66,592.42 1881.09,595.287ZM1860.74,622.237C1857.61,623.47 1856.04,625.654 1856.04,628.787C1856.04,630.587 1856.57,632.004 1857.64,633.037C1858.71,634.07 1860.27,634.587 1862.34,634.587C1864.67,634.587 1866.82,633.987 1868.79,632.787C1870.76,631.587 1872.41,630.02 1873.74,628.087L1873.74,620.287C1868.21,620.354 1863.87,621.004 1860.74,622.237Z" style="fill:rgb(143,39,4);fill-rule:nonzero;"/>
                <path d="M1971.34,607.187L1971.34,641.387C1971.34,643.254 1969.57,644.187 1966.04,644.187L1964.14,644.187C1960.61,644.187 1958.84,643.254 1958.84,641.387L1958.84,608.887C1958.84,603.887 1956.44,601.387 1951.64,601.387C1949.44,601.387 1947.56,602.037 1945.99,603.337C1944.42,604.637 1943.14,606.087 1942.14,607.687L1942.14,641.387C1942.14,643.254 1940.37,644.187 1936.84,644.187L1934.94,644.187C1931.41,644.187 1929.64,643.254 1929.64,641.387L1929.64,608.887C1929.64,603.887 1927.24,601.387 1922.44,601.387C1920.17,601.387 1918.19,602.087 1916.49,603.487C1914.79,604.887 1913.61,606.254 1912.94,607.587L1912.94,641.387C1912.94,643.254 1911.17,644.187 1907.64,644.187L1905.74,644.187C1902.21,644.187 1900.44,643.254 1900.44,641.387L1900.44,608.387C1900.44,603.92 1900.24,600.67 1899.84,598.637C1899.44,596.604 1899.24,595.354 1899.24,594.887C1899.24,593.954 1900.34,593.237 1902.54,592.737C1904.74,592.237 1906.67,591.987 1908.34,591.987C1909.41,591.987 1910.17,592.454 1910.64,593.387C1911.11,594.32 1911.46,595.304 1911.69,596.337C1911.92,597.37 1912.07,598.087 1912.14,598.487C1913.87,596.354 1916.06,594.57 1918.69,593.137C1921.32,591.704 1924.14,590.987 1927.14,590.987C1934.14,590.987 1938.67,593.587 1940.74,598.787C1942.54,596.587 1944.82,594.737 1947.59,593.237C1950.36,591.737 1953.27,590.987 1956.34,590.987C1966.34,590.987 1971.34,596.387 1971.34,607.187Z" style="fill:rgb(143,39,4);fill-rule:nonzero;"/>
                <path d="M2025.44,593.487C2025.44,593.887 2025.34,594.454 2025.14,595.187L2009.14,642.287C2008.67,643.554 2007.01,644.187 2004.14,644.187L2000.84,644.187C1997.91,644.187 1996.21,643.554 1995.74,642.287L1979.84,595.087C1979.57,594.42 1979.44,593.887 1979.44,593.487C1979.44,592.154 1981.27,591.487 1984.94,591.487L1987.14,591.487C1990.07,591.487 1991.77,592.12 1992.24,593.387L1999.64,616.787L2001.84,625.387L2002.74,628.987L2003.14,628.987C2004.14,623.854 2005.07,619.82 2005.94,616.887L2013.44,593.387C2013.91,592.12 2015.61,591.487 2018.54,591.487L2020.24,591.487C2023.71,591.487 2025.44,592.154 2025.44,593.487Z" style="fill:rgb(143,39,4);fill-rule:nonzero;"/>
                <path d="M2071.34,597.987C2074.81,602.654 2076.54,608.954 2076.54,616.887C2076.54,617.62 2075.97,618.67 2074.84,620.037C2073.71,621.404 2072.81,622.087 2072.14,622.087L2044.44,622.087C2044.77,626.554 2046.01,629.77 2048.14,631.737C2050.27,633.704 2053.34,634.687 2057.34,634.687C2059.54,634.687 2061.49,634.42 2063.19,633.887C2064.89,633.354 2066.64,632.687 2068.44,631.887C2069.51,631.42 2070.14,631.187 2070.34,631.187C2071.21,631.187 2072.19,632.054 2073.29,633.787C2074.39,635.52 2074.94,636.854 2074.94,637.787C2074.94,639.054 2073.97,640.22 2072.04,641.287C2070.11,642.354 2067.72,643.187 2064.89,643.787C2062.06,644.387 2059.41,644.687 2056.94,644.687C2048.34,644.687 2041.94,642.42 2037.74,637.887C2033.54,633.354 2031.44,626.787 2031.44,618.187C2031.44,608.987 2033.52,602.154 2037.69,597.687C2041.86,593.22 2047.74,590.987 2055.34,590.987C2062.54,590.987 2067.87,593.32 2071.34,597.987ZM2044.44,613.187L2064.14,613.187C2064.14,609.32 2063.41,606.32 2061.94,604.187C2060.47,602.054 2058.24,600.987 2055.24,600.987C2048.97,600.987 2045.37,605.054 2044.44,613.187Z" style="fill:rgb(143,39,4);fill-rule:nonzero;"/>
                <path d="M2115.09,592.437C2115.99,593.404 2116.44,594.52 2116.44,595.787C2116.44,597.054 2116.17,598.587 2115.64,600.387C2115.11,602.187 2114.47,603.087 2113.74,603.087C2113.41,603.087 2112.74,602.937 2111.74,602.637C2110.74,602.337 2109.74,602.187 2108.74,602.187C2106.81,602.187 2105.12,602.787 2103.69,603.987C2102.26,605.187 2101.14,606.387 2100.34,607.587L2100.34,641.387C2100.34,643.254 2098.57,644.187 2095.04,644.187L2093.14,644.187C2089.61,644.187 2087.84,643.254 2087.84,641.387L2087.84,608.387C2087.84,603.92 2087.64,600.67 2087.24,598.637C2086.84,596.604 2086.64,595.354 2086.64,594.887C2086.64,593.954 2087.74,593.237 2089.94,592.737C2092.14,592.237 2094.07,591.987 2095.74,591.987C2096.81,591.987 2097.57,592.454 2098.04,593.387C2098.51,594.32 2098.86,595.304 2099.09,596.337C2099.32,597.37 2099.47,598.087 2099.54,598.487C2101.01,596.154 2102.64,594.32 2104.44,592.987C2106.24,591.654 2108.34,590.987 2110.74,590.987C2112.74,590.987 2114.19,591.47 2115.09,592.437Z" style="fill:rgb(143,39,4);fill-rule:nonzero;"/>
                <path d="M2159.39,595.287C2162.82,598.154 2164.54,602.154 2164.54,607.287L2164.54,627.387C2164.54,631.987 2164.74,635.32 2165.14,637.387C2165.54,639.454 2165.74,640.72 2165.74,641.187C2165.74,642.12 2164.64,642.837 2162.44,643.337C2160.24,643.837 2158.31,644.087 2156.64,644.087C2155.57,644.087 2154.81,643.604 2154.34,642.637C2153.87,641.67 2153.52,640.62 2153.29,639.487C2153.06,638.354 2152.91,637.587 2152.84,637.187C2151.31,639.054 2149.27,640.77 2146.74,642.337C2144.21,643.904 2141.07,644.687 2137.34,644.687C2132.27,644.687 2128.41,643.37 2125.74,640.737C2123.07,638.104 2121.74,634.52 2121.74,629.987C2121.74,617.72 2131.84,611.554 2152.04,611.487L2152.04,607.687C2152.04,603.22 2149.04,600.987 2143.04,600.987C2140.57,600.987 2138.39,601.27 2136.49,601.837C2134.59,602.404 2132.96,603.004 2131.59,603.637C2130.22,604.27 2129.44,604.587 2129.24,604.587C2128.37,604.587 2127.39,603.67 2126.29,601.837C2125.19,600.004 2124.64,598.62 2124.64,597.687C2124.64,596.62 2125.49,595.57 2127.19,594.537C2128.89,593.504 2131.21,592.654 2134.14,591.987C2137.07,591.32 2140.24,590.987 2143.64,590.987C2150.71,590.987 2155.96,592.42 2159.39,595.287ZM2139.04,622.237C2135.91,623.47 2134.34,625.654 2134.34,628.787C2134.34,630.587 2134.87,632.004 2135.94,633.037C2137.01,634.07 2138.57,634.587 2140.64,634.587C2142.97,634.587 2145.12,633.987 2147.09,632.787C2149.06,631.587 2150.71,630.02 2152.04,628.087L2152.04,620.287C2146.51,620.354 2142.17,621.004 2139.04,622.237Z" style="fill:rgb(143,39,4);fill-rule:nonzero;"/>
            </g>
        </g>
    </g>
</svg>
