<svg id="Layer_1" data-name="Layer 1" xmlns="http://www.w3.org/2000/svg" viewBox="0 0 1450.92 342.6"><title>Untitled-1</title><g id="Layer42"><g id="Layer41"><circle cx="114.88" cy="256.68" r="23.17" transform="translate(-182.83 294.91) rotate(-79.17)" style="fill:#f6b000"/><circle cx="226.68" cy="178.31" r="23.17" transform="translate(-15.07 341.07) rotate(-79.17)" style="fill:#c4021b"/><circle cx="227.23" cy="257.02" r="23.17" transform="translate(-91.92 405.54) rotate(-79.17)" style="fill:#f6b000"/><circle cx="304.87" cy="206.46" r="23.17" transform="translate(20.78 440.73) rotate(-79.17)" style="fill:#f6b000"/><circle cx="301.68" cy="89.08" r="23.17" transform="translate(133.48 342.28) rotate(-79.17)" style="fill:#f6b000"/><circle cx="188.5" cy="131.08" r="23.17" transform="translate(0.32 265.22) rotate(-79.17)" style="fill:#c4021b"/><circle cx="54.19" cy="93.16" r="23.17" transform="translate(-71.51 102.51) rotate(-79.17)" style="fill:#f6b000"/><circle cx="47.2" cy="187.3" r="23.17" transform="translate(-169.66 172.1) rotate(-79.17)" style="fill:#f6b000"/><circle cx="276.83" cy="143.63" r="23.17" transform="translate(59.72 362.17) rotate(-79.17)" style="fill:#f65c00"/><circle cx="140.44" cy="52.98" r="23.17" transform="translate(37.99 154.59) rotate(-79.17)" style="fill:#f6b000"/><circle cx="131.22" cy="115.01" r="23.17" transform="translate(-30.42 195.91) rotate(-79.17)" style="fill:#f65c00"/><circle cx="103.84" cy="168.34" r="23.17" transform="translate(-105.03 212.33) rotate(-79.17)" style="fill:#c4021b"/><circle cx="231.67" cy="49.55" r="23.17" transform="translate(115.45 241.41) rotate(-79.17)" style="fill:#f6b000"/></g><g id="Layer411"><ellipse cx="218.46" cy="94.4" rx="10.01" ry="10.12" transform="translate(60.68 264.85) rotate(-79.17)" style="fill:#f65c00"/><ellipse cx="99.75" cy="78.81" rx="10.01" ry="10.12" transform="translate(-20.43 135.6) rotate(-79.17)" style="fill:#f6b000"/><ellipse cx="263.83" cy="229.09" rx="10.01" ry="10.12" transform="translate(-34.78 418.8) rotate(-79.17)" style="fill:#f65c00"/><ellipse cx="315.94" cy="160.9" rx="9.88" ry="9.98" transform="translate(74.52 414.6) rotate(-79.17)" style="fill:#f6b000"/><ellipse cx="62.43" cy="146.43" rx="9.88" ry="9.98" transform="translate(-117.14 153.86) rotate(-79.17)" style="fill:#f65c00"/><ellipse cx="149.57" cy="160.34" rx="9.88" ry="9.98" transform="translate(-60.03 250.75) rotate(-79.17)" style="fill:#c4021b"/><ellipse cx="74.17" cy="241.05" rx="10.01" ry="10.12" transform="translate(-200.55 242.24) rotate(-79.17)" style="fill:#f65c00"/><ellipse cx="34.15" cy="129.68" rx="10.01" ry="10.12" transform="translate(-123.65 112.48) rotate(-79.17)" style="fill:#f6b000"/><ellipse cx="131.27" cy="200.03" rx="10.01" ry="10.12" transform="translate(-113.88 265) rotate(-79.17)" style="fill:#c4021b"/><ellipse cx="264.31" cy="192.14" rx="10.01" ry="10.12" transform="translate(1.91 389.27) rotate(-79.17)" style="fill:#c4021b"/><ellipse cx="87.3" cy="123.06" rx="10.01" ry="10.12" transform="translate(-74 159.31) rotate(-79.17)" style="fill:#f65c00"/><ellipse cx="51.29" cy="227.02" rx="10.01" ry="10.12" transform="translate(-205.35 208.37) rotate(-79.17)" style="fill:#f6b000"/><ellipse cx="192.33" cy="209.25" rx="10.01" ry="10.12" transform="translate(-73.35 332.46) rotate(-79.17)" style="fill:#c4021b"/><ellipse cx="233.02" cy="129.42" rx="10.01" ry="10.12" transform="translate(38.1 307.6) rotate(-79.17)" style="fill:#f65c00"/><ellipse cx="254.86" cy="92.43" rx="10.01" ry="10.12" transform="translate(92.17 299.01) rotate(-79.17)" style="fill:#f6b000"/><ellipse cx="183.87" cy="55.94" rx="10.01" ry="10.12" transform="translate(70.35 199.65) rotate(-79.17)" style="fill:#f6b000"/><ellipse cx="172.39" cy="86.87" rx="10.01" ry="10.12" transform="translate(30.65 213.49) rotate(-79.17)" style="fill:#f65c00"/></g></g><g id="Layer19"><g id="Layer27"><path d="M158.26,199.55s-41.86,27.35,7.56,75.77c11.72,11.49,28.17,36.73,26.3,45.1,4.41-5.31-5.94-35.5-23-56.82C158.85,245.49,144.59,240.81,158.26,199.55Z" transform="translate(-24.02 -26.38)" style="fill:#8f2704"/></g><g id="Layer34"><path d="M207.46,327.79s-9.64,24.92-38.4,34.69C189,365.73,212.06,349.63,207.46,327.79Z" transform="translate(-24.02 -26.38)" style="fill:#8f2704"/></g><g id="Layer28"><path d="M166.87,280.24s53.63,63.06-50.39,88.72c-1.17.29,31.26-4.22,41.77-5.37C181.17,348.47,209.24,324.1,166.87,280.24Z" transform="translate(-24.02 -26.38)" style="fill:#8f2704"/></g><g id="Layer30"><path d="M180.72,254.17s-3.37-3.17-6.19-5.95a91.85,91.85,0,0,0,36.93-34.14C208.16,229,191.7,251,180.72,254.17Z" transform="translate(-24.02 -26.38)" style="fill:#8f2704"/></g><g id="Layer31"><path d="M208.23,227.3c6.08-.16,36.17-6.26,48.09-14.5-15.07,13.39-40.54,18.26-51.82,20.64A34.59,34.59,0,0,0,208.23,227.3Z" transform="translate(-24.02 -26.38)" style="fill:#8f2704"/></g><g id="Layer32"><path d="M166.91,239.17s-32.74-56.08,28.8-49C147.15,191.71,166.91,239.17,166.91,239.17Z" transform="translate(-24.02 -26.38)" style="fill:#8f2704"/></g><g id="Layer33"><path d="M140.6,235.8S105.74,211,77.25,222.67c22.37-16.82,62.48,3.76,62.58,5.66S139.27,231.55,140.6,235.8Z" transform="translate(-24.02 -26.38)" style="fill:#8f2704"/></g><g id="Layer35"><path d="M205.28,350.14A31.21,31.21,0,0,1,187,362.53c20.47.78,41.88,2.86,53.35,5.78C228.18,363.31,216.62,365.35,205.28,350.14Z" transform="translate(-24.02 -26.38)" style="fill:#8f2704"/></g><g id="Layer36"><path d="M111.52,216.49s-5.38-1.52-9.23-1.15c.36-1.91-12.33-9-22.21-10.86C90.49,205.28,109.19,214.2,111.52,216.49Z" transform="translate(-24.02 -26.38)" style="fill:#8f2704"/></g><g id="Layer37"><path d="M156,220s-2.48,11.81,21.94,34.88c16.51,20.3,22,30.46,24.76,39.76,5.82,19.32,3.41,49.44-34.82,66.89a38.55,38.55,0,0,1-5.5,2c44.71-34.5,32.36-57.27,26-73.57C180.26,268.13,150.22,240.06,156,220Z" transform="translate(-24.02 -26.38)" style="fill:#8f2704"/></g><g id="Layer38"><path d="M157.91,348.08s32.9-12.85,15-53.19C181.63,330.05,158.24,347.85,157.91,348.08Z" transform="translate(-24.02 -26.38)" style="fill:#8f2704"/></g><g id="Layer39"><path d="M170.44,188.1l-3.77,2.68s-5.32-16.38-.8-30.67A63.8,63.8,0,0,0,170.44,188.1Z" transform="translate(-24.02 -26.38)" style="fill:#8f2704"/></g></g><path d="M392.42,104.62s15.28,13.2,30,13.2c6.79,0,13.77-3,13.77-9.43,0-14.71-45.83-15.09-45.83-42.81,0-23.2,18.29-30.36,37.53-30.36,16.6,0,27,6.22,27,6.22L450.51,60.3s-9.43-8.49-26.59-8.49c-6.41,0-12.07,3.77-12.07,8.86,0,15.28,46,13.58,46,45.26,0,19.24-14.15,29.61-35.65,29.61s-32.06-11.13-32.06-11.13Z" transform="translate(-24.02 -26.38)" style="fill:#8f2704"/><path d="M475.59,49.36S489.55,35,515,35c15.65,0,32.25,6.41,32.25,26V109.9c0,11.32,9.62,22.63,9.62,22.63l-23.76,2.64a32.68,32.68,0,0,1-6.41-11.69,41.61,41.61,0,0,1-28.48,12.07c-16.41,0-27.54-12.07-27.54-24.71,0-19.8,19.61-35.46,53.18-36.59V70.67c0-13.2-4.9-18.86-12.82-18.86-14.9,0-25.84,14.15-25.84,14.15Zm48.28,60.73V90.85c-9.24.75-29,2.83-29,17,0,5.28,3.58,10.37,11.13,10.37C511.8,118.2,519.72,114.24,523.87,110.09Z" transform="translate(-24.02 -26.38)" style="fill:#8f2704"/><path d="M694.93,133.1V78c0-17.73-1.89-23.39-11.5-23.39-14,0-23.39,10.75-23.39,10.75v51.86l2.07,15.84H636.65V78c0-17.73-1.89-23.39-11.5-23.39-14.33,0-23.58,10.94-23.58,10.94v51.3l2.07,16.22H578.19v-76l-2.64-19,26-2.83V46.91a46,46,0,0,1,30-11.88c10.37,0,20.75,4.71,25.65,13.2.38-.57,11.5-13.2,32.63-13.2,14.33,0,28.48,7.73,28.48,24.14v58.09l2.07,15.84Z" transform="translate(-24.02 -26.38)" style="fill:#8f2704"/><path d="M788.66,135.55,768.29,132l-26-75.82L733,38.61l26.4-3.4,19.24,60.73,2.07,12.64,3-12.64L804.69,38.8l25.08-3.58Z" transform="translate(-24.02 -26.38)" style="fill:#8f2704"/><path d="M917.28,84.44,912.75,89H860.51c.94,15.28,8.68,27.35,23.57,27.35,16.41,0,31.68-13.39,31.68-13.39l3.4,19.24s-15.09,13.39-39.61,13.39c-28.1,0-43-23.39-43-47.72C836.56,60.3,849.95,35,881.44,35,914.45,35,916.9,70.29,917.28,84.44ZM861.45,72.37h31.5c-.57-9.05-3.77-21.31-13.77-21.31C868.81,51.06,863.53,60.49,861.45,72.37Z" transform="translate(-24.02 -26.38)" style="fill:#8f2704"/><path d="M996.67,62.75S991.2,57.66,984,57.66c-9.81,0-21.5,12.07-21.5,26.78v32.44l2.07,16.22H939.15V57.28l-2.64-19,26-2.83V52.57S971.78,35,988.19,35a21.1,21.1,0,0,1,15.65,7Z" transform="translate(-24.02 -26.38)" style="fill:#8f2704"/><path d="M1015.15,49.36s14-14.33,39.42-14.33c15.65,0,32.25,6.41,32.25,26V109.9c0,11.32,9.62,22.63,9.62,22.63l-23.76,2.64a32.69,32.69,0,0,1-6.41-11.69,41.6,41.6,0,0,1-28.48,12.07c-16.41,0-27.54-12.07-27.54-24.71,0-19.8,19.61-35.46,53.18-36.59V70.67c0-13.2-4.9-18.86-12.82-18.86-14.9,0-25.84,14.15-25.84,14.15Zm48.28,60.73V90.85c-9.24.75-29,2.83-29,17,0,5.28,3.58,10.37,11.13,10.37C1051.36,118.2,1059.29,114.24,1063.43,110.09Z" transform="translate(-24.02 -26.38)" style="fill:#8f2704"/><path d="M461.08,211.35a30.16,30.16,0,0,0-23.2-11.69c-16.22,0-23.39,15.46-23.39,32.44,0,15.84,7.17,30.93,22.63,30.93,16.41,0,30.93-15.09,30.93-15.09l3.39,19.61s-14.14,14.71-38.85,14.71c-28.1,0-42.06-24.14-42.06-48.47,0-27.54,16.41-52.05,46.77-52.05,23.2,0,34.51,12.64,34.51,12.64Z" transform="translate(-24.02 -26.38)" style="fill:#8f2704"/><path d="M526,282.26c-28.67,0-43.57-25.08-43.57-48.85,0-28.1,17.92-51.68,50-51.68,24.71,0,43.38,14.9,43.38,48.28C575.74,258.12,557.45,282.26,526,282.26Zm3-16.79c13.58,0,21.69-14.71,21.69-33.57s-8.11-33.38-21.69-33.38S507.28,213,507.28,231.91,515.39,265.48,529,265.48Z" transform="translate(-24.02 -26.38)" style="fill:#8f2704"/><path d="M655.89,279.81V224.74c0-17.73-1.89-23.39-11.5-23.39-14.33,0-23.57,10.75-23.57,10.75v51.49l2.07,16.22H597.42v-76l-2.64-19,26-2.83v11.5a45.82,45.82,0,0,1,30-11.69c14.33,0,28.48,7.73,28.48,24.14V264l2.07,15.84Z" transform="translate(-24.02 -26.38)" style="fill:#8f2704"/><path d="M767.72,279.81V224.74c0-17.73-1.89-23.39-11.5-23.39-14.33,0-23.57,10.75-23.57,10.75v51.49l2.07,16.22H709.26v-76l-2.64-19,26-2.83v11.5a45.82,45.82,0,0,1,30-11.69c14.33,0,28.48,7.73,28.48,24.14V264l2.07,15.84Z" transform="translate(-24.02 -26.38)" style="fill:#8f2704"/><path d="M893.33,231.15l-4.53,4.53H836.56C837.5,251,845.23,263,860.13,263c16.41,0,31.68-13.39,31.68-13.39l3.39,19.24s-15.09,13.39-39.61,13.39c-28.1,0-43-23.39-43-47.72,0-27.54,13.39-52.81,44.89-52.81C890.5,181.74,892.95,217,893.33,231.15ZM837.5,219.08H869c-.57-9.05-3.77-21.31-13.77-21.31C844.86,197.77,839.58,207.2,837.5,219.08Z" transform="translate(-24.02 -26.38)" style="fill:#8f2704"/><path d="M977.25,211.35a30.16,30.16,0,0,0-23.2-11.69c-16.22,0-23.39,15.46-23.39,32.44,0,15.84,7.17,30.93,22.63,30.93,16.41,0,30.93-15.09,30.93-15.09l3.4,19.61s-14.15,14.71-38.85,14.71c-28.1,0-42.06-24.14-42.06-48.47,0-27.54,16.41-52.05,46.77-52.05,23.2,0,34.51,12.64,34.51,12.64Z" transform="translate(-24.02 -26.38)" style="fill:#8f2704"/><path d="M1031.75,184.57h28.1l-6,17.54h-22.25v50.17c0,6.79,3.39,8.68,7.92,8.68,7,0,17.35-5.09,21.69-8.86l2.45,20.56s-10.56,9.62-31.12,9.62c-16,0-24.14-8.49-24.14-30.55v-49.6h-11.5V184.57h11.5V167.79l25.27-2.83Z" transform="translate(-24.02 -26.38)" style="fill:#8f2704"/><path d="M1124.54,279.81l-2.45-10.56c16.22-17.35,46.58-48.66,46.58-68.08,0-10.75-7.54-15.84-14.33-15.84-13.2,0-23,11.5-23,11.5l-9.81-17.16A56.82,56.82,0,0,1,1157,167c18.29,0,35.64,10.56,35.64,31.68,0,28.29-38.1,60.73-38.1,60.73h45.08l-2.45,20.37Z" transform="translate(-24.02 -26.38)" style="fill:#8f2704"/><path d="M1298.23,224c0,32.25-12.26,58.28-46.21,58.28-22.07,0-40-15.65-40-58.47,0-32.82,13.2-57.71,44.13-57.71C1291.63,166.09,1298.23,197,1298.23,224Zm-61.86-2.26c0,25.08,4.15,42.81,17.73,42.81,12.07,0,20.18-14.71,20.18-39.79,0-24.71-5.66-40.55-19.24-40.55C1242.6,184.19,1236.38,197.58,1236.38,221.72Z" transform="translate(-24.02 -26.38)" style="fill:#8f2704"/><path d="M1309.55,261.71h23.2V192.87l-18.48,5.66-6.79-16.79,48.66-16v96h23.2l-2.64,18.11h-67.14Z" transform="translate(-24.02 -26.38)" style="fill:#8f2704"/><path d="M1398.75,298.29l47.53-108.44h-53.94l-6-20.37h85.06l3.58,4.9-55.07,126.93Z" transform="translate(-24.02 -26.38)" style="fill:#8f2704"/></svg>